<svg
  xmlns="http://www.w3.org/2000/svg"
  viewBox="0 0 64 64"
  width="200"
  height="200"
>
  <!-- Agent Silhouette -->
  <g transform="translate(20, 12)">
    <!-- Hat -->
    <path
      d="M12 8
         C12 8, 20 8, 20 8
         C22 8, 24 6, 24 4
         C24 2, 22 0, 20 0
         L4 0
         C2 0, 0 2, 0 4
         C0 6, 2 8, 4 8
         C4 8, 12 8, 12 8"
      fill="#333"
    />

    <!-- Head -->
    <circle
      cx="12"
      cy="14"
      r="6"
      fill="#333"
    />

    <!-- Body -->
    <path
      d="M6 20
         L18 20
         L22 40
         L2 40
         Z"
      fill="#333"
    />
  </g>

  <!-- Reflection (slightly transparent) -->
  <g transform="translate(20, 12) scale(-1, 1) translate(-24, 0)" opacity="0.3">
    <!-- Hat -->
    <path
      d="M12 8
         C12 8, 20 8, 20 8
         C22 8, 24 6, 24 4
         C24 2, 22 0, 20 0
         L4 0
         C2 0, 0 2, 0 4
         C0 6, 2 8, 4 8
         C4 8, 12 8, 12 8"
      fill="#333"
    />

    <!-- Head -->
    <circle
      cx="12"
      cy="14"
      r="6"
      fill="#333"
    />

    <!-- Body -->
    <path
      d="M6 20
         L18 20
         L22 40
         L2 40
         Z"
      fill="#333"
    />
  </g>
</svg>
