<svg
  xmlns="http://www.w3.org/2000/svg"
  viewBox="0 0 64 64"
  width="200"
  height="200"
>
  <!-- Castle Base -->
  <rect
    x="8"
    y="24"
    width="48"
    height="32"
    fill="#e1e4e8"
    stroke="#333"
    stroke-width="2"
  />

  <!-- Left Tower -->
  <path
    d="M8 24
       L8 12
       L16 12
       L16 24"
    fill="#e1e4e8"
    stroke="#333"
    stroke-width="2"
  />

  <!-- Right Tower -->
  <path
    d="M48 24
       L48 12
       L56 12
       L56 24"
    fill="#e1e4e8"
    stroke="#333"
    stroke-width="2"
  />

  <!-- Battlements -->
  <path
    d="M8 12
       L8 8 L12 8 L12 12
       M12 12 L12 8 L16 8 L16 12
       M48 12 L48 8 L52 8 L52 12
       M52 12 L52 8 L56 8 L56 12"
    fill="#e1e4e8"
    stroke="#333"
    stroke-width="2"
  />

  <!-- Breached Wall -->
  <path
    d="M24 56
       L24 32
       C24 32, 32 28, 40 32
       L40 56"
    fill="#e1e4e8"
    stroke="#333"
    stroke-width="2"
  />

  <!-- Rubble -->
  <path
    d="M26 56
       L28 52
       L32 54
       L36 50
       L38 56"
    fill="#333"
    stroke="#333"
    stroke-width="1"
  />

  <!-- Windows -->
  <rect x="11" y="16" width="2" height="4" fill="#333"/>
  <rect x="51" y="16" width="2" height="4" fill="#333"/>
</svg>
